<svg width="36" height="36" viewBox="0 0 36 36" fill="none" xmlns="http://www.w3.org/2000/svg">
<path d="M35.4711 17.7274C35.4711 13.0258 33.6034 8.51676 30.2789 5.19223C26.9544 1.86771 22.4454 7.56805e-06 17.7438 7.56805e-06C13.2799 -0.00411476 8.97875 1.67598 5.69953 4.70469C2.42032 7.73341 0.40444 11.8878 0.0545677 16.3379C-0.295305 20.7881 1.04659 25.2064 3.8122 28.7104C6.57782 32.2144 10.5635 34.546 14.9732 35.2395V22.8506H10.4756V17.7274H14.9758V13.8223C14.9758 9.38032 17.6222 6.92381 21.6716 6.92381C23.6115 6.92381 25.64 7.27076 25.64 7.27076V11.6342H23.4039C21.2006 11.6342 20.5168 13.0018 20.5168 14.4022V17.7274H25.4324L24.6473 22.8506H20.5143V35.2395C24.684 34.5792 28.4813 32.4527 31.2231 29.2425C33.9649 26.0323 35.4712 21.9491 35.4711 17.7274Z" fill="#1877F2"/>
<path d="M24.6448 22.8507L25.4299 17.7275H20.5143V14.4023C20.5143 13.0019 21.1981 11.6343 23.4014 11.6343H25.6376V7.26834C25.6376 7.26834 23.609 6.92139 21.6692 6.92139C17.6172 6.92139 14.9733 9.37789 14.9733 13.8199V17.7275H10.4756V22.8507H14.9758V35.2396C16.8115 35.5285 18.6811 35.5285 20.5169 35.2396V22.8507H24.6448Z" fill="white"/>
</svg>
