<svg width="27" height="27" viewBox="0 0 27 27" fill="none" xmlns="http://www.w3.org/2000/svg">
<path d="M13.1795 26.3249C20.449 26.3249 26.342 20.4319 26.342 13.1625C26.342 5.89303 20.449 0 13.1795 0C5.91012 0 0.0170898 5.89303 0.0170898 13.1625C0.0170898 20.4319 5.91012 26.3249 13.1795 26.3249Z" fill="#C13584"/>
<path d="M13.1795 6.68789C15.2881 6.68789 15.538 6.69591 16.3707 6.73389C17.1407 6.76903 17.5589 6.89769 17.8372 7.00582C18.2058 7.1491 18.4688 7.32021 18.7452 7.59655C19.0216 7.87297 19.1927 8.13602 19.336 8.50463C19.4441 8.78295 19.5728 9.20112 19.6079 9.97106C19.6459 10.8038 19.6539 11.0536 19.6539 13.1623C19.6539 15.2711 19.6459 15.5208 19.6079 16.3536C19.5728 17.1236 19.4441 17.5417 19.336 17.82C19.1927 18.1886 19.0216 18.4518 18.7453 18.7281C18.4688 19.0045 18.2058 19.1756 17.8372 19.3188C17.5589 19.427 17.1407 19.5556 16.3707 19.5908C15.5381 19.6287 15.2883 19.6368 13.1795 19.6368C11.0706 19.6368 10.8209 19.6287 9.98822 19.5908C9.21821 19.5556 8.80004 19.427 8.52172 19.3188C8.15311 19.1756 7.89006 19.0045 7.61371 18.7281C7.33736 18.4518 7.16619 18.1886 7.02291 17.82C6.91478 17.5417 6.78612 17.1236 6.75098 16.3536C6.713 15.5208 6.70497 15.2711 6.70497 13.1623C6.70497 11.0536 6.713 10.8038 6.75098 9.97106C6.78612 9.20112 6.91478 8.78295 7.02291 8.50463C7.16619 8.13602 7.3373 7.87297 7.61371 7.59662C7.89006 7.32021 8.15311 7.1491 8.52172 7.00582C8.80004 6.89769 9.21821 6.76903 9.98822 6.73389C10.8209 6.69591 11.0708 6.68789 13.1795 6.68789ZM13.1795 5.26489C11.0346 5.26489 10.7657 5.27397 9.92333 5.31241C9.08277 5.35078 8.50863 5.48424 8.00628 5.67951C7.48696 5.88129 7.04654 6.15132 6.60751 6.59042C6.16841 7.02945 5.89838 7.46987 5.6966 7.98919C5.50133 8.49154 5.36787 9.06562 5.3295 9.90624C5.29106 10.7486 5.28198 11.0175 5.28198 13.1623C5.28198 15.3072 5.29106 15.5761 5.3295 16.4184C5.36787 17.259 5.50133 17.8331 5.6966 18.3355C5.89838 18.8548 6.16841 19.2952 6.60751 19.7343C7.04654 20.1733 7.48696 20.4434 8.00628 20.6452C8.50863 20.8404 9.08277 20.9739 9.92333 21.0123C10.7657 21.0507 11.0346 21.0598 13.1795 21.0598C15.3243 21.0598 15.5932 21.0507 16.4356 21.0123C17.2761 20.9739 17.8503 20.8404 18.3526 20.6452C18.8719 20.4434 19.3124 20.1733 19.7514 19.7343C20.1904 19.2952 20.4605 18.8548 20.6623 18.3355C20.8576 17.8331 20.991 17.259 21.0294 16.4184C21.0678 15.5761 21.0769 15.3072 21.0769 13.1623C21.0769 11.0175 21.0678 10.7486 21.0294 9.90624C20.991 9.06562 20.8576 8.49154 20.6623 7.98919C20.4605 7.46987 20.1904 7.02945 19.7514 6.59042C19.3124 6.15132 18.8719 5.88129 18.3526 5.67951C17.8503 5.48424 17.2761 5.35078 16.4356 5.31241C15.5932 5.27397 15.3243 5.26489 13.1795 5.26489Z" fill="white"/>
<path d="M13.1831 9.11047C10.9433 9.11047 9.12769 10.9261 9.12769 13.1659C9.12769 15.4057 10.9433 17.2213 13.1831 17.2213C15.4229 17.2213 17.2386 15.4057 17.2386 13.1659C17.2386 10.9261 15.4229 9.11047 13.1831 9.11047ZM13.1831 15.7984C11.7292 15.7984 10.5506 14.6197 10.5506 13.1659C10.5506 11.712 11.7292 10.5334 13.1831 10.5334C14.637 10.5334 15.8156 11.712 15.8156 13.1659C15.8156 14.6197 14.637 15.7984 13.1831 15.7984Z" fill="white"/>
<path d="M18.3461 8.94788C18.3461 9.47122 17.9218 9.89558 17.3984 9.89558C16.875 9.89558 16.4507 9.47122 16.4507 8.94788C16.4507 8.42448 16.875 8.00012 17.3984 8.00012C17.9218 8.00012 18.3461 8.42448 18.3461 8.94788Z" fill="white"/>
</svg>
