<svg width="27" height="27" viewBox="0 0 27 27" fill="none" xmlns="http://www.w3.org/2000/svg">
<path d="M13.3001 26.3249C20.5696 26.3249 26.4626 20.4319 26.4626 13.1625C26.4626 5.89303 20.5696 0 13.3001 0C6.03073 0 0.137695 5.89303 0.137695 13.1625C0.137695 20.4319 6.03073 26.3249 13.3001 26.3249Z" fill="#1DA1F2"/>
<path fill-rule="evenodd" clip-rule="evenodd" d="M21.1978 8.10052C20.6171 8.3585 19.9922 8.53225 19.3367 8.61069C20.0058 8.2095 20.5197 7.57461 20.7613 6.8181C20.1359 7.18974 19.4415 7.45878 18.7039 7.60462C18.1127 6.975 17.2698 6.58118 16.3385 6.58118C14.5491 6.58118 13.0981 8.03214 13.0981 9.82157C13.0981 10.0753 13.1271 10.3227 13.1824 10.5602C10.489 10.4254 8.10146 9.13502 6.50315 7.17447C6.2241 7.65306 6.06457 8.2095 6.06457 8.80339C6.06457 9.9274 6.63582 10.9193 7.50606 11.5004C6.9743 11.4836 6.47524 11.3378 6.03772 11.095V11.1356C6.03772 12.7061 7.15541 14.0153 8.63691 14.3139C8.36524 14.3876 8.07882 14.4276 7.78352 14.4276C7.5745 14.4276 7.37128 14.407 7.17331 14.3691C7.58556 15.6564 8.78275 16.5935 10.2005 16.6198C9.09174 17.4884 7.69455 18.007 6.17619 18.007C5.914 18.007 5.65608 17.9917 5.40283 17.9612C6.83695 18.8804 8.54004 19.4174 10.37 19.4174C16.3301 19.4174 19.5895 14.4797 19.5895 10.198C19.5895 10.0574 19.5868 9.9174 19.58 9.77893C20.2138 9.32088 20.7634 8.75022 21.1978 8.10052Z" fill="white"/>
</svg>
