<svg width="28" height="27" viewBox="0 0 28 27" fill="none" xmlns="http://www.w3.org/2000/svg">
<path d="M14.0589 26.3249C21.3284 26.3249 27.2214 20.4319 27.2214 13.1625C27.2214 5.89303 21.3284 0 14.0589 0C6.78951 0 0.896484 5.89303 0.896484 13.1625C0.896484 20.4319 6.78951 26.3249 14.0589 26.3249Z" fill="#FF0000"/>
<path fill-rule="evenodd" clip-rule="evenodd" d="M21.4959 8.14634C21.7585 8.40899 21.9478 8.73589 22.0448 9.09443C22.6035 11.3432 22.4744 14.8949 22.0557 17.2305C21.9587 17.5891 21.7694 17.916 21.5067 18.1786C21.2441 18.4413 20.9172 18.6306 20.5587 18.7276C19.246 19.0856 13.963 19.0856 13.963 19.0856C13.963 19.0856 8.67987 19.0856 7.36725 18.7276C7.0087 18.6306 6.68181 18.4413 6.41916 18.1786C6.1565 17.916 5.96722 17.5891 5.87022 17.2305C5.30824 14.9915 5.46231 11.4376 5.85936 9.10529C5.95636 8.74668 6.14564 8.41979 6.4083 8.15713C6.67095 7.89448 6.99784 7.70526 7.35639 7.60819C8.66901 7.25024 13.9521 7.23938 13.9521 7.23938C13.9521 7.23938 19.2352 7.23938 20.5478 7.5974C20.9063 7.69441 21.2332 7.88368 21.4959 8.14634ZM16.6533 13.1625L12.2707 15.7009V10.624L16.6533 13.1625Z" fill="white"/>
</svg>
